<?xml version="1.0" encoding="utf-8"?>
<!-- Generator: Adobe Illustrator 25.3.1, SVG Export Plug-In . SVG Version: 6.00 Build 0)  -->
<svg version="1.1" id="a2d9d229-353b-45a3-a49c-3cd821be84b2"
	 xmlns="http://www.w3.org/2000/svg" xmlns:xlink="http://www.w3.org/1999/xlink" x="0px" y="0px" viewBox="0 0 865.6 658.5"
	 style="enable-background:new 0 0 865.6 658.5;" xml:space="preserve">
<style type="text/css">
	.st0{fill:#E5E5E5;}
	.st1{fill:#CBCBCB;}
	.st2{fill:#FFFFFF;}
	.st3{fill:none;}
	.st4{fill:#9F616A;}
	.st5{fill:#2F2E41;}
	.st6{opacity:0.1;enable-background:new    ;}
	.st7{fill:#6C63FF;}
	.st8{fill:#FFB7B7;}
	.st9{fill:#3F3D56;}
</style>
<path class="st0" d="M187.9,468.5c0,57.8-60.6,85.4-60.6,85.4s-61.2-27.6-62.4-85.4c-0.7-34,27.5-61.5,61.5-61.5
	C160.4,407,187.9,434.5,187.9,468.5C187.9,468.5,187.9,468.5,187.9,468.5z"/>
<polygon class="st1" points="147.8,557.3 106.9,557.3 101.9,537.4 152.8,537.4 "/>
<rect x="108.2" y="591.3" class="st2" width="38.2" height="19.9"/>
<path class="st1" d="M146.8,611.5h-38.8V591h38.8V611.5z M108.6,610.9h37.6v-19.3h-37.6V610.9z"/>
<polygon class="st1" points="135.2,559.6 119.5,559.6 117.7,556.8 137,556.8 "/>
<rect x="107.2" y="557.3" class="st1" width="0.6" height="30.4"/>
<rect x="146.9" y="557.3" class="st1" width="0.6" height="30.4"/>
<path class="st1" d="M133.6,537.1l-0.4-0.5c17.9-13.8,39.3-37.5,39.3-71.9c0-24.6-14.7-46.8-37.4-56.4l0.2-0.6
	c22.9,9.7,37.8,32.1,37.7,56.9C173.1,499.3,151.6,523.2,133.6,537.1z"/>
<path class="st1" d="M113.7,537.1l-0.4-0.5c17.9-13.8,39.3-37.5,39.3-71.9c0-24.4-14.5-46.5-36.9-56.2l0.2-0.6
	c22.7,9.8,37.3,32.1,37.3,56.8C153.3,499.3,131.7,523.2,113.7,537.1z"/>
<path class="st1" d="M139.1,537.1c-18.1-13.9-39.6-37.8-39.6-72.4c0-24.7,14.7-47,37.3-56.8l0.2,0.6c-22.4,9.7-36.9,31.8-36.9,56.2
	c0,34.3,21.4,58.1,39.3,71.9L139.1,537.1z"/>
<path class="st1" d="M119.3,537.1c-18.1-13.9-39.6-37.8-39.6-72.4c0-25,15-47.5,38-57l0.2,0.6c-22.8,9.5-37.7,31.8-37.6,56.5
	c0,34.4,21.4,58.1,39.3,71.9L119.3,537.1z"/>
<rect x="126.1" y="407" class="st1" width="0.6" height="130.4"/>
<line class="st3" x1="108.2" y1="598.4" x2="119.6" y2="587"/>
<rect x="105.9" y="592.4" transform="matrix(0.7071 -0.7071 0.7071 0.7071 -385.721 254.1641)" class="st1" width="16.1" height="0.6"/>
<line class="st3" x1="108.2" y1="604.6" x2="125.2" y2="586.8"/>
<rect x="104.4" y="595.4" transform="matrix(0.6891 -0.7247 0.7247 0.6891 -395.4176 269.8126)" class="st1" width="24.6" height="0.6"/>
<rect x="103.4" y="586.8" class="st2" width="46.6" height="5.6"/>
<path class="st1" d="M150.3,592.7h-47.2v-6.2h47.2V592.7z M103.7,592.1h46v-5h-46V592.1z"/>
<path class="st0" d="M305.1,322.1c0,38.1-40,56.4-40,56.4s-40.4-18.2-41.2-56.4c-0.5-22.4,18.2-40.6,40.6-40.6
	C286.9,281.5,305.1,299.7,305.1,322.1z"/>
<polygon class="st1" points="278.6,380.7 251.6,380.7 248.3,367.6 281.9,367.6 "/>
<rect x="252.5" y="403.2" class="st2" width="25.2" height="13.1"/>
<path class="st1" d="M277.9,416.5h-25.6V403h25.6V416.5z M252.7,416.1h24.8v-12.7h-24.8V416.1z"/>
<polygon class="st1" points="270.3,382.3 260,382.3 258.8,380.4 271.5,380.4 "/>
<rect x="251.8" y="380.7" class="st1" width="0.4" height="20.1"/>
<rect x="278" y="380.7" class="st1" width="0.4" height="20.1"/>
<path class="st1" d="M269.2,367.4l-0.3-0.3c11.8-9.1,26-24.8,26-47.5c0-16.2-9.7-30.9-24.7-37.2l0.2-0.4
	c15.1,6.4,24.9,21.2,24.9,37.6C295.4,342.4,281.1,358.2,269.2,367.4z"/>
<path class="st1" d="M256.1,367.4l-0.3-0.3c11.8-9.1,26-24.8,26-47.5c0-16.1-9.6-30.7-24.4-37.1l0.2-0.4c15,6.4,24.6,21.2,24.6,37.5
	C282.2,342.4,268,358.2,256.1,367.4z"/>
<path class="st1" d="M272.9,367.4c-11.9-9.2-26.1-24.9-26.1-47.8c0-16.3,9.7-31,24.6-37.5l0.2,0.4c-14.8,6.4-24.4,21-24.4,37.1
	c0,22.7,14.1,38.3,26,47.5L272.9,367.4z"/>
<path class="st1" d="M259.8,367.4c-11.9-9.2-26.1-24.9-26.1-47.8c0-16.5,9.9-31.3,25.1-37.7l0.2,0.4c-15.1,6.3-24.9,21-24.8,37.3
	c0,22.7,14.1,38.3,26,47.5L259.8,367.4z"/>
<rect x="264.3" y="281.5" class="st1" width="0.4" height="86.1"/>
<line class="st3" x1="252.5" y1="407.8" x2="260" y2="400.3"/>
<rect x="251" y="403.9" transform="matrix(0.7071 -0.7071 0.7071 0.7071 -210.6697 299.5677)" class="st1" width="10.6" height="0.4"/>
<line class="st3" x1="252.5" y1="411.9" x2="263.7" y2="400.2"/>
<rect x="250" y="405.9" transform="matrix(0.6891 -0.7247 0.7247 0.6891 -214.0284 313.3157)" class="st1" width="16.2" height="0.4"/>
<rect x="249.3" y="400.2" class="st2" width="30.7" height="3.7"/>
<path class="st1" d="M280.3,404.1h-31.2V400h31.2V404.1z M249.5,403.7h30.3v-3.3h-30.3V403.7z"/>
<polygon class="st4" points="523,647.8 519.6,647.8 518,634.8 523,634.8 "/>
<path class="st5" d="M523.8,651H513v-0.1c0-2.3,1.9-4.2,4.2-4.2h6.6V651z"/>
<polygon class="st4" points="566.2,641.4 563.3,643.1 555.3,632.9 559.6,630.3 "/>
<path class="st5" d="M559.4,649.3l-0.1-0.1c-1.2-2-0.5-4.6,1.4-5.8l5.7-3.4l2.2,3.7L559.4,649.3z"/>
<path class="st5" d="M523.9,645.1L523.9,645.1c-1.7,0-3.3-0.1-4.9-0.3c-0.6-0.1-1.3-0.1-2.1-0.2l0,0c-0.6-0.2-0.6-5.3-0.3-23
	c0.1-9.1,0.3-19.3,0.1-25.9l0-0.1l0,0c5.9-5.2,14-7.2,21.6-5.5l0.1,0l0,0.1c3.3,5.6,8.3,13.6,13.1,21.4c11,17.8,14.2,23.1,13.9,23.5
	l0,0c-0.8,0.4-1.3,0.7-1.8,0.9c-1.9,1-3.9,1.9-5.9,2.6l-0.1,0l-0.1-0.1c-11.2-12.3-20.5-26-26.3-38.7c-0.7,4.3-1.5,10-2.4,16
	C526.3,633.1,524.6,644.4,523.9,645.1L523.9,645.1z"/>
<path class="st1" d="M526.9,597.1c6.7,0,13.3,1.1,19.6,3.3c0.2-10.6-3.3-20.9-10-29.1l0-0.1l0-0.1c1.8-5.1,3.6-10.3,5.2-15.6l0-0.1
	c-1.1-4.1-3.6-8.1-7.5-12.5c-0.9-0.9-2.3-1-3.3-0.2c-6.9,6.3-10.5,15.5-9.8,24.8l0,0l0,0c-3,10.3-4.2,15.6-5.1,20.3
	c-0.7,3.4-1.3,6.4-2.6,10.6C517.8,597.6,522.3,597.1,526.9,597.1z"/>
<polygon class="st6" points="536.7,564.4 526.8,586 521.1,580.3 "/>
<circle class="st4" cx="532.5" cy="533.8" r="7.1"/>
<path class="st5" d="M523.9,529.8h11.2v-4.9c-2.5-1-4.9-1.8-6.3,0C526.1,524.9,523.9,527.1,523.9,529.8z"/>
<path class="st5" d="M535.7,524c6.7,0,8.6,8.4,8.6,13.1c0,2.6-1.2,3.6-3.1,3.9l-0.7-3.5l-1.6,3.7c-0.5,0-1.1,0-1.7,0l-0.5-1.1
	l-1.2,1.1c-4.7,0-8.5,0.7-8.5-4C527.2,532.4,528.8,524,535.7,524z"/>
<path class="st7" d="M738.1,198c0,186-195,275-195,275s-197-89-201-275C339.7,88.7,430.7,0,540.1,0S738.1,88.6,738.1,198z"/>
<polygon class="st8" points="547.3,646.3 543.2,646.3 541.2,630.5 547.3,630.5 "/>
<path class="st5" d="M540.2,645.1h7.9l0,0v5l0,0h-12.9l0,0l0,0C535.2,647.4,537.5,645.1,540.2,645.1
	C540.2,645.1,540.2,645.1,540.2,645.1z"/>
<polygon class="st8" points="562.7,646.3 558.6,646.3 556.6,630.5 562.7,630.5 "/>
<path class="st5" d="M555.6,645.1h7.9l0,0v5l0,0h-12.9l0,0l0,0C550.7,647.4,552.9,645.1,555.6,645.1L555.6,645.1z"/>
<path class="st8" d="M562.2,599.1c-1.7-1.1-2.2-3.3-1.1-5c0.1-0.2,0.2-0.3,0.4-0.5l-2.7-38.4l7.8,0.8l0.2,37.6
	c1.4,1.5,1.3,3.7-0.1,5.1C565.4,599.8,563.6,600,562.2,599.1L562.2,599.1z"/>
<path class="st5" d="M547.1,638.3l-4.5-0.2c-0.8,0-1.4-0.7-1.4-1.5l-0.3-45.8c0-0.8,0.7-1.5,1.5-1.5c0.1,0,0.2,0,0.2,0l18.1,2.6
	c0.7,0.1,1.3,0.7,1.3,1.5l2.3,42.4c0,0.8-0.7,1.5-1.5,1.5c0,0,0,0,0,0h-4.9c-0.7,0-1.4-0.5-1.5-1.3c0,0-3.7-31.8-4.2-31.8
	c-0.5,0-3.5,32.7-3.5,32.7C548.6,637.7,547.9,638.3,547.1,638.3C547.1,638.3,547.1,638.3,547.1,638.3z"/>
<path class="st9" d="M560.6,568.1c-0.4-0.3-0.6-0.7-0.6-1.1l-0.6-10.4c-0.1-2.3,1.6-4.3,3.9-4.4c2-0.1,3.7,1.2,4.2,3.1l2.5,9.3
	c0.2,0.8-0.3,1.6-1.1,1.9l-7.1,1.9C561.4,568.5,560.9,568.4,560.6,568.1z"/>
<circle class="st8" cx="553.9" cy="535.3" r="8.2"/>
<path class="st5" d="M559.7,541.8c-1,1.1-2.7,1.1-3.8,0.1c-0.5-0.4-0.8-1-0.8-1.6c0-0.2,0-0.3,0-0.5c0.1-1,0.7-1.9,0.5-2.9
	c0-0.3-0.1-0.5-0.3-0.7c-1.2-1.6-4.1,0.7-5.3-0.8c-0.7-0.9,0.1-2.3-0.4-3.4c-0.7-1.3-2.8-0.7-4.2-1.4c-1.5-0.8-1.4-3.1-0.4-4.5
	c1.3-1.7,3.2-2.7,5.3-2.7c2.1,0,4.1,0.4,6,1.2c2.2,0.7,4.2,2.1,5.7,4c1.5,2.5,1.9,5.5,1,8.2C562.7,538.4,561,540.4,559.7,541.8z"/>
<path class="st9" d="M562.1,549c-0.1-0.1-0.3-0.2-0.4-0.3c-0.8-0.5-1.6-0.9-2.5-1.2v-2.2h-6.4v2c-4.3,1.2-7.5,4.8-8.1,9.3l-4.3,32.2
	c-0.1,0.4,0.1,0.8,0.3,1.1c0.3,0.3,0.6,0.5,1,0.6c3,0.4,6,1.4,8.6,2.9c1.9,1.1,4.1,1.6,6.3,1.6c1.7,0,3.5-0.3,5.1-0.9
	c0.6-0.2,1-0.7,1-1.3c0.2-3.5,1.1-21.3,3.7-32.2C567.4,556.2,565.7,551.7,562.1,549z"/>
<polygon class="st9" points="609.1,484 477.1,484 461.1,420 625.1,420 "/>
<rect x="481.6" y="593.5" class="st2" width="123" height="64.1"/>
<path class="st9" d="M605.6,658.5h-125v-66.1h125V658.5z M482.6,656.5h121v-62.1h-121V656.5z"/>
<polygon class="st9" points="568.3,491.5 517.9,491.5 512.1,482.5 574.1,482.5 "/>
<rect x="478.1" y="484" class="st9" width="2" height="98"/>
<rect x="606.1" y="484" class="st9" width="2" height="98"/>
<path class="st9" d="M563.1,418.9l-1.2-1.6c57.8-44.6,126.7-120.9,126.7-231.5c0.1-79.2-47.3-150.8-120.3-181.5l0.8-1.8
	c73.7,31.1,121.6,103.3,121.5,183.4C690.6,297.3,621.3,374.1,563.1,418.9z"/>
<path class="st9" d="M499.1,418.9l-1.2-1.6c57.8-44.6,126.7-120.9,126.7-231.5c0-78.7-46.7-149.8-118.9-180.9l0.8-1.8
	c73,31.5,120.2,103.3,120.2,182.8C626.6,297.3,557.3,374.1,499.1,418.9z"/>
<path class="st9" d="M581,418.9c-58.1-44.8-127.4-121.7-127.4-233.1c0-79.4,47.2-151.3,120.2-182.8l0.8,1.8
	c-72.2,31.2-119,102.3-119,180.9c0,110.6,68.9,186.9,126.7,231.5L581,418.9z"/>
<path class="st9" d="M517,418.9c-58.1-44.8-127.4-121.7-127.4-233.1C389.5,105.5,437.8,33,512,2.1l0.8,1.8
	c-73.4,30.5-121.3,102.3-121.1,181.9c0,110.6,68.9,186.9,126.7,231.5L517,418.9z"/>
<rect x="539.1" y="0" class="st9" width="2" height="420"/>
<line class="st3" x1="481.6" y1="616.3" x2="518.3" y2="579.6"/>
<rect x="474" y="597" transform="matrix(0.7071 -0.7071 0.7071 0.7071 -276.3976 528.6415)" class="st9" width="51.9" height="2"/>
<line class="st3" x1="481.6" y1="636.3" x2="536.1" y2="579"/>
<rect x="469.3" y="606.7" transform="matrix(0.6891 -0.7247 0.7247 0.6891 -282.1551 557.718)" class="st9" width="79.1" height="2"/>
<rect x="466.1" y="579" class="st2" width="150" height="18"/>
<path class="st9" d="M617.1,598h-152v-20h152V598z M467.1,596h148v-16h-148V596z"/>
<path class="st4" d="M514.6,587.4c1.5-0.1,2.7-1.4,2.6-2.9c0-0.2,0-0.3-0.1-0.5l8.2-5.4l-4.7-2l-7,5.4c-1.5,0.5-2.3,2-1.8,3.5
	C512.2,586.7,513.3,587.5,514.6,587.4z"/>
<path class="st1" d="M522.5,583.5l-0.1-0.1c-1.9-1.4-4.1-2.9-6.2-4.3L516,579l0.1-0.1c4.5-5.2,8.9-10.7,13.2-15.9l0,0l0,0l0,0l0,0
	l0,0l-0.1,0l-1.3-10.4c-1.3-2.2-1.3-5,0.1-7.2c1.7-2.4,4.9-3.1,7.4-1.7c1.2,0.8,2,2.2,2.1,3.6c0.2,1.3-0.3,2.6-1.2,3.6
	c0.5,5.1,0.7,10.1,0.6,15.2l0,0l0,0C532.5,572,527.4,577.8,522.5,583.5L522.5,583.5z"/>
<path class="st8" d="M524.1,551.4c0,0.2,0.1,0.4,0.1,0.5l14.4,8.3l3.5-2l3.7,4.9l-7.5,5.3l-16.4-13c-1.8,0.7-3.8-0.3-4.5-2.1
	c-0.7-1.8,0.3-3.8,2.1-4.5c1.8-0.7,3.8,0.3,4.5,2.1C524,551.2,524,551.3,524.1,551.4L524.1,551.4z"/>
<path class="st9" d="M539,559.6c0-0.5,0.1-0.9,0.4-1.2l7.3-7.3c1.6-1.6,4.3-1.6,5.9,0c1.4,1.4,1.6,3.6,0.5,5.2l-5.2,8
	c-0.5,0.7-1.4,0.9-2.1,0.4l-6.2-4C539.3,560.5,539.1,560.1,539,559.6z"/>
</svg>
