<?xml version="1.0" encoding="utf-8"?>
<!-- Generator: Adobe Illustrator 25.3.1, SVG Export Plug-In . SVG Version: 6.00 Build 0)  -->
<svg version="1.1" id="Layer_2_1_" xmlns="http://www.w3.org/2000/svg" xmlns:xlink="http://www.w3.org/1999/xlink" x="0px" y="0px"
	 viewBox="0 0 1000 1000" style="enable-background:new 0 0 1000 1000;" xml:space="preserve">
<style type="text/css">
	.st0{fill:none;stroke:#CCDDE2;stroke-width:5.28;stroke-miterlimit:10;}
	.st1{fill:#2E2E2E;}
	.st2{fill:#3FBDF1;}
	.st3{fill:none;stroke:#000000;stroke-width:5.28;stroke-miterlimit:10;}
</style>
<path class="st0" d="M396.7,855.6v22c0,2.4-1.7,4.5-4,4.9l0,0c-0.3,0.1-0.7,0.1-1,0.1H239.9"/>
<path class="st1" d="M576.2,444.8c0,0,19.4,69.4-16.7,95.3c0.4,2.1,34.4-2,34.4-2l-1.9,37.4c0,0,39.2,15.3,57.5,15.4
	s36.4-17.3,40.8-26.2s83.2,5.2,76.3,63.6c0,0-50.2,52.5-105.5,36.1c0,0-37.8-14.9-22.8,2.6S739.1,745.2,749,866.1
	c0,0,71.8-43.3,75.4-176.8s-34.8-188.2-74.1-229.9c0,0-29.8-20.9-34.4-14.6s-34.8,30.9-44.8,29.2s-25-1-20.3-12.8s8.4-6.4,6.7-15.2
	s-2.1-9.8-12.5-8.8S576.2,444.8,576.2,444.8z"/>
<path class="st2" d="M404.7,855.7c-9,8.8-18.2,17.8-27.3,27h-92.1c-7.5,0.3-13.7-5.5-14-13c-0.3-7.5,5.5-13.7,13-14c0.3,0,0.7,0,1,0
	H404.7z"/>
<path class="st2" d="M760.2,364.3c0,2.3-0.2,4.6-0.5,6.9v0.1l-4.4,15.2v0.1c-9.8,20.9-31.7,30.5-43.2,34.2c-2.4,0.8-4.8,1.5-7.3,2
	c-3.1-9.9-1.9-19.5,4.1-28.1c2.6-3.8,6.5-6.5,8.7-10.6c2.1-3.8,2.3-8.3-0.8-11.5c-1-1.1-2.3-1.9-3.6-2.6c-2.3-1.2-5.1-1.3-7.5-0.2
	c-0.5,0.2-0.9,0.5-1.3,0.7c-5-3.5-1.5-8.6,0-12.9c0.2-0.5,0.3-1,0.5-1.6c0,0,0-0.1,0-0.1c0.5-1.5,3.8-13.9-4.9-24.8
	c-0.7-0.9-1.3-1.8-1.9-2.8c-1.8-3.3-2-7.3-0.6-10.8c1.3-3.1,3.3-5.9,5.9-8.1l0,0l0,0c2.6-2.3,5.9-3.8,9.4-4.4
	c15.3,2.1,31.6,14.9,32.7,15.8c0,0,0,0,0.1,0C754.2,331,760.3,345.2,760.2,364.3z"/>
<path class="st2" d="M745.4,320.8c-1.5-1.2-33.1-26.2-49.8-11.4l0,0l0,0c-7.4,1.3-14.5,3.7-21.2,7.2h-0.6c0,0,5.2-17.8,26.5-17.5
	C713,299.2,732.2,305.5,745.4,320.8z"/>
<path class="st2" d="M795.1,401.3c-2.6,14.4-14.6,26.9-14.1,41.7c0.5,14,6.7,27.6,8.2,41.6c0.5,4.9,0.4,13-0.7,21.8
	c0,0.1,0,0.2,0,0.4c-8.7-16.2-30.8-38.6-40.5-48c1.6-3.3,3.4-6.5,5.5-9.5c6.3-9,12.1-18.2,16.1-28.4c2.6-6.5,6.3-16.1,3-23
	c-0.5-1.2-1.3-2.3-2.4-3.1c-0.2-1.4-0.5-2.8-1.1-4.1c-1.1-2.7-3.8-4.6-6.7-4.6c-2.2-0.1-4.4,0.2-6.5,0.9v-0.2v-0.1
	c2.3-4.8,3.8-10,4.4-15.2v-0.1c4.8-4.4,13.3-9.3,25.2-3.3c5,2.5,7.8,6.9,9.3,12C796.8,386.8,796.3,394.9,795.1,401.3z"/>
<path class="st3" d="M712.3,752.6c-26.5-39.1-57.2-72.8-86.5-100.4c-7.2-6.8-14.3-13.2-21.3-19.2l0,0l0,0
	c-14.3-12.5-28-23.3-40.2-32.5c-21.6-16.2-51.5-15.6-72.4,1.5c-5.3,4.2-9.7,9.4-13.2,15.2L334.6,855.7h-49.3
	c-7.5-0.3-13.7,5.5-14,13c-0.3,7.5,5.5,13.7,13,14c0.3,0,0.7,0,1,0h92.1c9.1-9.2,18.2-18.2,27.3-27c54-52.5,104.7-96.2,124.3-112.8"
	/>
<path class="st3" d="M592,575.5c-2-31.8,5-63.6,20.2-91.6"/>
<path class="st3" d="M700.9,537.2c-18.8,78.1-80.5,48.2-80.5,48.2l-23.9-8.3l-54.1-18.8c-8.7-3.9-19-3.6-26.9,1.5
	c-7,4.5-23,23.4-23.6,42.2"/>
<path class="st3" d="M519.5,717.4c3.1,9,6.2,17.4,9.5,25.4c73.4,179.6,200.7,134.8,200.7,134.8c112.4-54.5,116-260.5,58.2-371
	c-0.3-0.7-0.7-1.3-1-2c-10.8-20.1-25-38.6-44.2-50.6c-5.5-3.4-11.3-6.2-17.3-8.4c-3.5-1.2-7.1-2.3-10.8-3.3"/>
<path class="st3" d="M533.4,453.4c25.7-6.7,52-10.2,78.5-13.1c13.3-1.4,28.4-2.8,43.8-3.1"/>
<path class="st3" d="M499.3,322.5c0,0-4.7-27.3,6.9-37.5c5.1-4.5,6.1-10.4,7.2-16.8c1.5-8.6,10.7-12.3,16.3-4.6
	c5.1,6.9,3.4,19.5,3.4,27.4"/>
<path class="st3" d="M501.8,290.9c0,0-13.1,0.4-11.1-28v-0.1c0.3-4.5,3.7-11.7,8.1-12.6l3.4-0.7c5.3-1,9.1-5.7,9.1-11.1v-31.6
	c0-5.3,3.5-10.1,8.7-11.1c5.9-1.2,11.7,2.6,12.9,8.5c0.1,0.7,0.2,1.4,0.2,2.1l0.3,259.1"/>
<path class="st3" d="M498.4,305.8c-23.1,2.7-24.9-26-24.5-38.6c0-0.1,0-0.1,0-0.1"/>
<path class="st3" d="M459.6,279.8c0,0-2.8,36.9,20.4,17.8"/>
<path class="st2" d="M712.6,945.6c-4.1,5-11.4,5.8-16.4,1.8c-0.3-0.2-0.5-0.4-0.7-0.6c-1.7-1.5-3.6-2.9-5.6-4
	c11.5-36.3-25.5-61.3-26.5-61.9c5.1,1.8,9.9,3.5,14.4,5.2c3.3,1.2,6.5,2.4,9.5,3.6c10.8,4.1,19.6,12.3,24.4,22.9
	C715.6,921,719.3,937.7,712.6,945.6z"/>
<path class="st3" d="M786.9,504.7c26.9,38.2,6.8,91.4-20.3,123.6c-36.9,43.8-90.3,48.3-140.8,23.9"/>
<path class="st3" d="M717.6,444.8c-5.1-7.5-11-16-12.8-22c-3.1-9.9-1.9-19.5,4.1-28.1c2.6-3.8,6.5-6.5,8.7-10.6
	c2.1-3.8,2.3-8.3-0.9-11.5c-2.8-2.8-7.2-4.7-11.1-2.7c-3.3,1.6-5.1,3.5-9,0.8c-5.8-4-0.6-10,0.3-14.6c0.2-0.8,0.3-1.5,0.5-2.3"/>
<polyline class="st3" points="649.5,405.4 659.1,454.8 661.1,465 "/>
<path class="st3" d="M658.4,451.1c-8,7.8-15.2,18.7,2.4,22.3c23.5,4.8,48.9-20.1,56.8-28.6"/>
<path class="st3" d="M673.8,316.6c0,0,5.2-17.7,26.5-17.5s60.4,17.4,59.9,65.2s-55.5,58.6-55.5,58.6"/>
<path class="st2" d="M595,122.8c0,40.2-32.6,72.8-72.8,72.8c-15.9,0-31.4-5.2-44.1-14.9c-26.7-30-24.1-76,5.9-102.7
	c26-23.2,64.8-24.7,92.5-3.5C588.4,87.7,595,104.9,595,122.8z"/>
<path class="st3" d="M745.5,320.9c0,0-32.8-26.6-49.9-11.5c0,0-12.8,10.2-3.5,21.8s4.9,24.9,4.9,24.9"/>
<path class="st3" d="M755.2,386.8c4.3-1.4,10.5-2.2,13.2,3.7c3.3,6.9-0.4,16.5-3,23c-4,10.2-9.8,19.4-16.1,28.4
	c-2.6,3.8-4.9,7.9-6.7,12.1"/>
<path class="st3" d="M787.9,506.7c0-0.1,0-0.2,0-0.4c1-8.8,1.2-16.8,0.7-21.8c-1.5-14-7.7-27.5-8.2-41.6
	c-0.5-14.8,11.5-27.3,14.1-41.7c2-11.1,2.2-27.5-9.6-33.4s-20.5-1.1-25.2,3.3"/>
<path class="st3" d="M668.4,406.2c-6.7,0.9-13.4,1.1-18.9-0.8c-10.7-3.8-16.6-15.8-7.7-46.9c11.1-39,42.9-47.3,53.7-49
	c-0.8,0-1.6,0.1-2.4,0.4"/>
<ellipse transform="matrix(0.6758 -0.737 0.737 0.6758 -33.8119 602.4377)" class="st3" cx="668" cy="339.7" rx="17.8" ry="6"/>
<path class="st3" d="M696.5,357.7c-7.7-4.9-15-10.5-21.9-16.5"/>
<path class="st3" d="M406.3,853.2c-2.2,14.6,6.3,42.1,98.3,47.5c109.9,6.5,167,30.9,185.2,42c2,1.1,3.9,2.5,5.6,4
	c4.7,4.5,12.1,4.3,16.5-0.4c0.2-0.2,0.4-0.5,0.6-0.7c6.7-8,3-24.7-1-33.2c-4.8-10.5-13.6-18.7-24.4-22.9c-3-1.1-6.2-2.3-9.5-3.6
	c-4.5-1.7-9.3-3.4-14.4-5.2l0,0c-13.4-4.8-28.6-10-44.4-15c-14.2-4.4-28.8-8.8-43.3-12.5c-1.4-0.3-2.7-0.7-4-1
	c-18.2-4.6-36-8.2-51.6-10.1"/>
<path class="st3" d="M575.6,853.3L575.6,853.3c8-2.2,16.2-3.8,24.4-4.8"/>
<path class="st3" d="M473.9,273.1c-0.2-2.1-0.5-4.8-1.8-6.6c-1.8-2.5-4.5,0.3-5.8,1.9c-6.9,8.7-9.8,19.9-12.5,30.4
	c-2.6,9.7-4.4,19.5-5.6,29.5c-2.3,19-2.3,38.3-2.5,57.4c-0.4,21.4,0.6,42.8,2.9,64.1c3.7,36.1,16.8,72.4,54.8,83.6
	c27.6,8.2,60,7.8,90.6,4.7"/>
<path class="st3" d="M473.8,269.1c-0.2-4.9,2.7-9.4,7.2-11.3c4.1-1.5,9.8-0.4,9.7,4.9c0,0.1,0,0.1,0,0.2"/>
<ellipse transform="matrix(0.7071 -0.7071 0.7071 0.7071 66.1185 405.1843)" class="st3" cx="522.2" cy="122.8" rx="72.8" ry="72.8"/>
<path class="st3" d="M215.2,882.6c3.8,0,208.5,0,208.5,0"/>
<path class="st3" d="M677.8,886h137.5"/>
</svg>
