<?xml version="1.0" encoding="utf-8"?>
<!-- Generator: Adobe Illustrator 24.1.3, SVG Export Plug-In . SVG Version: 6.00 Build 0)  -->
<svg version="1.1" id="sketchvalley" xmlns="http://www.w3.org/2000/svg" xmlns:xlink="http://www.w3.org/1999/xlink" x="0px"
	 y="0px" viewBox="0 0 942.6 430.8" style="enable-background:new 0 0 942.6 430.8;" xml:space="preserve">
<style type="text/css">
	.st0{fill:#BCE4E9;}
	.st1{fill:#DCF6F4;}
	.st2{fill:#AFDDF5;}
	.st3{fill:none;stroke:#4F1313;stroke-miterlimit:10;}
	.st4{fill:none;stroke:#4F1313;stroke-width:2;stroke-linecap:round;stroke-miterlimit:10;}
	.st5{fill:#39B161;}
	.st6{fill:#D27565;}
	.st7{fill:#E6F5F5;}
	.st8{fill:#3DB25B;}
	.st9{fill:#77DD5D;}
	.st10{fill:#42CB6D;}
	.st11{fill:#38A858;}
	.st12{fill:#85D761;}
	.st13{fill:#60DB3E;}
	.st14{fill:#3ECF6F;}
	.st15{fill:#8FEA67;}
	.st16{fill:#84D660;}
	.st17{fill:#45CA6C;}
	.st18{fill:#759AAA;}
	.st19{fill:#AA7127;}
	.st20{fill:#F9E6CF;}
	.st21{fill:#C6292C;}
	.st22{fill:#5E2E1E;}
	.st23{fill:#9A9B9C;}
	.st24{fill:#E84D4F;}
	.st25{fill:#C82D30;}
	.st26{fill:#FFC445;}
	.st27{fill:#FEC844;}
	.st28{fill:#F15A62;}
	.st29{fill:#EFAB40;}
	.st30{fill:#FEC867;}
	.st31{fill:#EFAA3A;}
	.st32{fill:none;stroke:#C82D30;stroke-width:2.5542;stroke-miterlimit:10;}
	.st33{fill:#FECA57;}
	.st34{fill:#FFA072;}
	.st35{fill:#FEC648;}
	.st36{fill:#FFAB01;}
	.st37{fill:none;stroke:#FFFFFF;stroke-width:1.2771;stroke-miterlimit:10;}
	.st38{fill:#FFFFFF;}
	.st39{fill:#FFAA00;}
	.st40{fill:#FFA372;}
	.st41{fill:#F37D4E;}
	.st42{fill:none;stroke:#5E2E1E;stroke-width:0.6465;stroke-linecap:round;stroke-miterlimit:10;}
</style>
<g>
	<g>
		<polygon class="st0" points="580.4,64.9 580.4,106 569.5,120.8 558.1,120.8 558.1,318.9 600.7,318.9 600.7,79.7 588.3,79.7 
			584.9,67.4 		"/>
		<polygon class="st1" points="768.1,67.4 777.5,67.4 788,77.9 797.3,77.9 797.3,202 822.6,202 822.6,220.3 843.4,220.3 
			843.4,116.9 871.1,116.9 871.1,157.5 900.4,157.5 910.8,165.6 910.8,191.7 927.4,191.7 927.4,318.9 768.1,318.9 		"/>
		<polygon class="st2" points="25.9,259.1 38.1,259.1 38.1,239 59.9,239 59.9,257.5 67.5,257.5 67.5,262.5 83.5,262.5 83.5,246 
			102.1,246 102.1,259.9 178.1,259.9 178.1,202 214.6,202 214.6,90.6 228.8,90.6 228.8,76.4 236.3,76.4 236.3,63.5 240.3,63.5 
			240.3,75.5 244.3,75.5 244.3,115.1 257.2,115.1 257.2,128 281.2,128 281.2,285.2 300.8,285.2 300.8,185.3 332.3,185.3 
			332.3,285.2 340.8,285.2 340.8,260.9 371.9,260.9 371.9,63.5 407,63.5 407,52 411.4,52 411.4,63.5 416.8,63.5 416.8,274 451,274 
			451,59.5 481.6,59.5 481.6,45.3 512.3,45.3 512.3,58.6 524.2,58.6 524.2,297.7 581.6,297.7 581.6,193.7 603,193.7 603,294.6 
			767.3,294.6 767.3,206.2 798.9,206.2 798.9,308.4 812.1,308.4 812.1,237.8 833.2,237.8 833.2,279.4 854.3,279.4 854.3,260.9 
			867.5,260.9 867.5,280.7 880,280.7 880,254.3 885.9,254.3 885.9,226.6 913.6,226.6 913.6,263.5 927.4,263.5 927.4,318.9 
			25.9,318.9 		"/>
		<line class="st3" x1="482.2" y1="260.9" x2="493.8" y2="272.1"/>
		<line class="st4" x1="493.8" y1="254.4" x2="493.8" y2="317.7"/>
		<path class="st5" d="M503.8,288h-20.2c-8.9,0-16.2-7.2-16.2-16.2V235c0-8.9,7.2-16.2,16.2-16.2h20.2c8.9,0,16.2,7.2,16.2,16.2
			v36.8C520,280.8,512.7,288,503.8,288z"/>
		<path class="st5" d="M725.7,287h-1.1c-10,0-18.1-8.1-18.1-18.1v-40.3c0-10,8.1-18.1,18.1-18.1h1.1c10,0,18.1,8.1,18.1,18.1v40.3
			C743.8,278.9,735.7,287,725.7,287z"/>
		<line class="st4" x1="725.2" y1="268.6" x2="725.2" y2="318.9"/>
		<path class="st5" d="M404.3,294.4c-20.3,0-25.1,11.4-25.1,24.5h77.6c0,0-9.6-23.2-31.9-15C424.8,303.9,419.6,294.4,404.3,294.4z"
			/>
		<rect x="162.2" y="297.3" class="st6" width="18.2" height="21.6"/>
		<rect x="121.2" y="303.6" class="st6" width="20.8" height="15.3"/>
		<rect x="587.8" y="23.8" class="st7" width="48" height="295.1"/>
		<polygon class="st1" points="315.9,48.5 315.9,318.9 368.4,318.9 368.4,48.5 357.5,48.5 357.5,32.2 350.6,32.2 350.6,48.5 		"/>
		<circle class="st8" cx="632" cy="253.4" r="14.8"/>
		<path class="st9" d="M628.9,165v74c0,16.3-13.2,29.6-29.6,29.6c-2.7,0-5.4-0.4-7.9-1.1c-12.5-3.5-21.7-14.9-21.7-28.5v-74
			c0-16.3,13.2-29.6,29.6-29.6c8.2,0,15.6,3.3,20.9,8.7c0.3,0.3,0.6,0.6,0.9,0.9C626,150.2,628.9,157.3,628.9,165z"/>
		<path class="st10" d="M628.9,165v74c0,16.3-13.2,29.6-29.6,29.6c-2.7,0-5.4-0.4-7.9-1.1c-4.8-5.3-7.8-12.3-7.8-20v-74
			c0-16.3,13.2-29.6,29.6-29.6c2.7,0,5.4,0.4,7.9,1.1C626,150.2,628.9,157.3,628.9,165z"/>
		<path class="st9" d="M694.2,203.8c0,24.3-19.7,43.9-43.9,43.9c-1.5,0-2.9-0.1-4.3-0.2c-22.2-2.2-39.6-20.9-39.6-43.7
			c0-24.3,19.7-43.9,43.9-43.9c5.6,0,10.9,1,15.8,2.9C682.6,169.2,694.2,185.1,694.2,203.8z"/>
		<path class="st5" d="M694.2,203.8c0,24.3-19.7,43.9-43.9,43.9c-1.5,0-2.9-0.1-4.3-0.2c-16.4-6.3-28.1-22.3-28.1-41
			c0-24.2,19.7-43.9,43.9-43.9c1.5,0,2.9,0.1,4.3,0.2C682.6,169.2,694.2,185.1,694.2,203.8z"/>
		<circle class="st10" cx="677.1" cy="263.3" r="26.9"/>
		<line class="st4" x1="636.2" y1="213.1" x2="650.3" y2="227.5"/>
		<path class="st11" d="M471.5,318.9c0,0,5.3-21.2,27.6-10.8c0,0,18.6-22,35.1,10.8H471.5z"/>
		<path class="st12" d="M552,318.9c0,0,0.2-19,23.2-14.8c0,0,27.4-15.3,34,14.8H552z"/>
		<line class="st4" x1="599.2" y1="318.9" x2="599.2" y2="237.6"/>
		<line class="st4" x1="650.3" y1="211.8" x2="648.8" y2="318.9"/>
		<polyline class="st4" points="752,262 752,282.4 752,318.9 		"/>
		<line class="st4" x1="784.2" y1="248.2" x2="752" y2="281.8"/>
		<line class="st4" x1="677.1" y1="260.9" x2="649.6" y2="287"/>
		<line class="st4" x1="634.8" y1="253.8" x2="648.8" y2="268.6"/>
		<line class="st4" x1="722.9" y1="227.5" x2="737.4" y2="243.5"/>
		<path class="st10" d="M759.4,266.2h-17.8c-2.3,0-4.2-1.9-4.2-4.2v-129c0-7.6,6.2-13.8,13.8-13.8h1.8c7.6,0,13.8,6.2,13.8,13.8
			v125.8C766.9,262.8,763.6,266.2,759.4,266.2z"/>
		<path class="st13" d="M793.7,249.9h-12.9c-4.5,0-8.2-3.7-8.2-8.2V174c0-7.8,6.3-14.1,14.1-14.1h3.4c4.8,0,8.7,3.9,8.7,8.7v76
			C798.9,247.6,796.6,249.9,793.7,249.9z"/>
		<path class="st14" d="M727.9,232.2h-6.3c-4.2,0-7.6-3.4-7.6-7.6v-59.3c0-7.1,5.7-12.8,12.8-12.8h1.7c2.9,0,5.2,2.3,5.2,5.2v68.7
			C733.7,229.6,731.1,232.2,727.9,232.2z"/>
		<circle class="st8" cx="435.8" cy="235.1" r="31.5"/>
		<polyline class="st4" points="424.8,246.1 435.8,256.5 435.8,235.1 435.8,318.9 		"/>
		<path class="st15" d="M564,188v59.5c0,12.4-10.1,22.5-22.5,22.5h-34.7c-3.2,0-6.2-0.7-8.9-1.9c-8-3.4-13.5-11.4-13.5-20.6V188
			c0-12.4,10.1-22.5,22.5-22.5h34.7c10.2,0,18.9,6.8,21.6,16.2C563.7,183.8,564,185.9,564,188z"/>
		<path class="st16" d="M564,188v59.5c0,12.4-10.1,22.5-22.5,22.5h-34.7c-3.2,0-6.2-0.7-8.9-1.9c-0.6-2-0.9-4.1-0.9-6.2v-59.5
			c0-12.4,10.1-22.5,22.5-22.5h34.7c3.2,0,6.2,0.7,8.9,1.8C563.7,183.8,564,185.9,564,188z"/>
		<line class="st4" x1="524.2" y1="206.5" x2="524.2" y2="318.9"/>
		<line class="st4" x1="541.2" y1="239" x2="524.2" y2="257.5"/>
		<line class="st4" x1="505.3" y1="223.8" x2="524.2" y2="242.8"/>
		<polygon class="st8" points="130.1,126.2 98.6,304.2 162.2,304.2 		"/>
		<path class="st9" d="M438,190.6c0,27.4-22.2,49.7-49.7,49.7c-3,0-5.9-0.3-8.7-0.8c-23.3-4.1-41-24.5-41-48.9
			c0-27.4,22.2-49.7,49.7-49.7c9,0,17.4,2.4,24.7,6.5C427.9,156,438,172.1,438,190.6z"/>
		<path class="st10" d="M438,190.6c0,27.4-22.2,49.7-49.7,49.7c-3,0-5.9-0.3-8.7-0.8c-14.9-8.6-25-24.7-25-43.1
			c0-27.4,22.2-49.7,49.7-49.7c3,0,5.9,0.3,8.7,0.8C427.9,156,438,172.1,438,190.6z"/>
		<line class="st4" x1="388.3" y1="190.6" x2="388.3" y2="318.3"/>
		<line class="st4" x1="403.1" y1="206.5" x2="388.3" y2="221"/>
		<circle class="st17" cx="367.5" cy="262.5" r="16.5"/>
		<line class="st4" x1="367.5" y1="262.5" x2="388.3" y2="285.2"/>
		<polygon class="st10" points="206.1,300.6 138.4,300.6 146.9,245.4 171.5,85.4 184.7,167.4 		"/>
		<polygon class="st9" points="184.7,167.4 146.9,245.4 171.5,85.4 		"/>
		<path class="st18" d="M263.8,163.3c-17.8,0-32.3,14.3-32.8,32.3l-10.5,9.7c-0.8,0.8-0.3,2,0.8,2h5.3c0.5,2.5,2.8,4.5,5.5,4.5
			c2.8,0,5-2,5.5-4.5h5.8c1,0,1.5-1.3,0.8-2l-10.8-10c0.5-16.5,14-29.8,30.5-29.8c16.8,0,30.5,13.8,30.5,30.8v121.8h2.2l0-121.8
			C296.6,178.3,281.8,163.3,263.8,163.3L263.8,163.3z"/>
		<path class="st18" d="M377.4,167.6l-10.5-9.7c-0.5-17.8-15-32.3-32.8-32.3c-18,0-32.8,14.8-32.8,33v159.6h2.2l0-159.6
			c0-17,13.8-30.8,30.5-30.8c16.5,0,30,13.3,30.5,29.8l-10.8,10c-0.8,0.8-0.3,2,0.8,2l5.5,0c0.5,2.5,2.8,4.5,5.5,4.5
			c2.8,0,5-2,5.5-4.5h5.3C377.6,169.6,378.1,168.3,377.4,167.6L377.4,167.6z"/>
		<path d="M277.6,277v2.8c0,0.8-0.5,1.3-1.3,1.3H153.8c-0.8,0-1.3-0.5-1.3-1.3V277c0-0.8,0.5-1.3,1.3-1.3h122.8
			C277.1,275.7,277.6,276.5,277.6,277L277.6,277z"/>
		<path d="M277.6,286.7v2.8c0,0.8-0.5,1.3-1.3,1.3H153.8c-0.8,0-1.3-0.5-1.3-1.3v-2.8c0-0.8,0.5-1.3,1.3-1.3h122.8
			C277.1,285.5,277.6,286,277.6,286.7L277.6,286.7z"/>
		<path d="M276.8,296.2H153c-0.3,0-0.3,0-0.3,0.3v2.2c0,0.3,0,0.3,0.3,0.3h9.3v19.3c0,0.3,0,0.3,0.3,0.3h4.5c0.3,0,0.3,0,0.3-0.3
			V299h95.5v19.3c0,0.3,0,0.3,0.3,0.3h4.5c0.3,0,0.3,0,0.3-0.3V299h9c0.3,0,0.3,0,0.3-0.3L276.8,296.2
			C277.1,296.2,277.1,296.2,276.8,296.2L276.8,296.2z"/>
		<path d="M352.6,287.5h-28v-4.7h28.3v4.7H352.6z M352.9,273.2h-28.3c-2.5,0-4.7,2.5-4.7,4.7v41.3h37.5V278
			C357.4,275.7,355.4,273.2,352.9,273.2L352.9,273.2z"/>
	</g>
	<g>
		<rect x="324.9" y="226.8" class="st19" width="68.4" height="2.4"/>
		<polygon class="st19" points="389.7,268.9 321.3,268.9 321.3,265.5 389.7,266.5 		"/>
		<path class="st20" d="M391.8,322.9c0,0-14.5-1-15.6,3c-1.2,4.1,0,17.8,0,17.8h7.3L391.8,322.9z"/>
		<path class="st21" d="M369.5,334c-0.1-5.7,3.8-7.3,6.6-8v14.9C376.1,340.8,369.6,341.6,369.5,334z"/>
		<circle class="st22" cx="412.6" cy="366.4" r="26.5"/>
		<circle class="st20" cx="412.6" cy="366.4" r="17.1"/>
		<circle class="st22" cx="581.2" cy="366.4" r="26.5"/>
		<circle class="st20" cx="581.2" cy="366.4" r="17.1"/>
		<circle class="st22" cx="413.5" cy="366.4" r="5.9"/>
		<circle class="st22" cx="580.8" cy="366.4" r="5.9"/>
		<path class="st23" d="M319.4,305.5v5.3c0,0-1.4,2.3,2.7,2.3c4.1,0,53.6,0,53.6,0l18.1,9.2l3.9-3.7l-9.9-6.2l17.5-0.2v-38.2h-13
			h-72.8V305.5z"/>
		<path class="st24" d="M614.3,347.5L548.7,369l4.6-7.2l24.1-37.9c0,0,30.8,1.9,33.5,19.5c0,0,0.3-0.1,0.7-0.2
			c0.5-0.1,1.3,0,1.7,0.8C614.1,345.4,614.3,347.5,614.3,347.5z"/>
		<path class="st25" d="M577.6,232.4v29.2L563,239.9C563,239.9,566.3,230.4,577.6,232.4z"/>
		<path class="st26" d="M585,246c0.5-6-2.7-10.2-5.5-10.7v21.3C579.5,256.5,584.2,256.1,585,246z"/>
		<path class="st27" d="M614.3,347.5L548.7,369l4.6-7.2l58.3-18.6c0.5-0.1,1.3,0,1.7,0.8C614.1,345.4,614.3,347.5,614.3,347.5z"/>
		<path class="st25" d="M561.5,358.6l10.3-3.2c0,0,7.5-23.1,19-28.9c0,0-12.9-3.2-16.4-2.4L561.5,358.6z"/>
		<path class="st24" d="M580.7,325c0,0-14.8,40.2-36.5,47.4h-94.4c0,0-3.1,0.3-3.1-4.2l-70.7-1.3H372c0,0-2.5-0.4,0-7.4
			c0.5-1.5,1.2-4,2.2-7.3c3.8-12.2,12.7-34,38.7-44.3l-4.3-6.8l67.2,2.3c0,0-17.3,16.9-16.6,30.6c0.8,13.6,20.8,22.2,20.8,22.2
			l52.4-0.9l1.8,0c0,0,9.1-8.2,9.5-14.5c0.4-6.2,0-56.7,0-56.7s-3.4-20.6-10-35.8c-2.4-5.6-5.3-10.5-8.5-13.4l-2.1-0.4
			c0,0,0.5,5.8-4.9,5.8c-5.4,0-6.5-5.2-4-7.7c2.5-2.5,8.7-12.9,8.7-12.9l-1.3-6.4c0,0-1.1,2.6-2.7,2.5c-1.6-0.1-5.9-0.1-5.3-10.2
			c-0.1-5.2,4.2-7.7,4.2-7.7s5.3-0.4,5.4,7.2c0.1,7.6,2.9,16,2.9,16l5.2-0.1c0,0-3.8-6.4-3.8-11.7c0-5.3-0.6-12.9,3-15.7
			c3.6-2.9,5.9,5,5.9,5s2.4,12.7-5.8,10.7c0,0-0.6,3.6,1.8,7.6c2.4,4.1,10.7,11.3,10.7,11.3s7.1-6.2,13.7,0.6c6.6,6.8,9,10.5,9,10.5
			s13.4,18.8,16.7,34.8C585.8,289.9,580.7,325,580.7,325z"/>
		<path class="st25" d="M541.7,355.8c-11.5,10.1-44.3,12.3-44.3,12.3l-50.7,0l-70.7-1.3H372c0,0-2.5-0.4,0-7.4
			c0.5-1.5,1.2-4,2.2-7.3c5-9.1,11.3-19.5,16.4-24.6c10.2-10.3,20.9-13.3,25.4-13.9c4.5-0.6,28.7-4.5,34.9,12.3
			c6.1,16.8,3.7,30.4,3.7,30.4s-0.6,2.9,3.5,3.1c4.1,0.2,65.4-0.6,65.4-0.6s6.1-0.9,9-3.5l1.8,0c0,0,9.1-8.2,9.5-14.5
			c0.4-6.2,0-56.7,0-56.7s-3.4-20.6-10-35.8c1.1-5.2,3.5-14.2,7.3-17.4c-0.1,0.5-3,10.2-1,18.4c2.1,8.4,7.4,41.6,8.4,48.2
			C549.5,304,553.2,345.8,541.7,355.8z"/>
		<path class="st24" d="M376.1,366.9c0,0,0.2-30.7,32.8-44.6c32.6-13.9,38.5,12.8,38.5,12.8l-0.7,33.1L376.1,366.9z"/>
		<path class="st28" d="M386.6,349.3c0,0,8.6-27.4,42-26.3c6.4,0,16,12.9,14.5,16.9C434.6,349,397.8,341.4,386.6,349.3z"/>
		<path class="st25" d="M412,271.6c0,0-10.5-1.4-10.3,8c0.2,9.3,0,26.7,0,26.7s52.2-5.8,67.6,1.2c15.4,7,11.9-15,11.9-15
			s-0.2-5.6-4.8-6.8C471.8,284.5,412,271.6,412,271.6z"/>
		<polygon class="st29" points="330.3,169.9 319.4,173 320.2,226.8 330.3,226.8 		"/>
		<polygon class="st30" points="399.3,172.7 330.3,169.9 330.3,226.8 399.3,226.8 		"/>
		<polygon class="st30" points="395.4,229.1 395.4,266.5 361.8,266.1 313,265.4 313,229.1 		"/>
		<rect x="317.7" y="268.7" class="st30" width="77.7" height="40.7"/>
		<polygon class="st31" points="361.8,229.1 361.8,266.1 313,265.4 313,229.1 		"/>
		<rect x="317.7" y="268.7" class="st31" width="22.4" height="40.7"/>
		<line class="st32" x1="345.8" y1="170.5" x2="344.3" y2="314.9"/>
		<line class="st32" x1="388.8" y1="170.5" x2="387" y2="314"/>
		<path class="st32" d="M292.3,182.9c0,0,13.2,15.7,32.6,3c19.4-12.7,35.9-14.8,35.9-14.8s-20-1.7-23.3-3.6s-23-11.2-30.2,2.4"/>
		<path class="st32" d="M381.1,155.9c-5.1-2.9-11.9-0.5-14.2,11.4C364.7,179.3,391.4,161.7,381.1,155.9z"/>
		<path class="st32" d="M366.7,165c2.3,11.9-24.5-5.7-14.2-11.4C357.7,150.7,364.4,153.1,366.7,165"/>
		<path class="st33" d="M506.4,345c0,0-4.8,1.4-5.1,6.4c-0.3,5,0,3.7,0,3.7l29.8,0.1c0,0,1.6-2.7-1.8-3.8
			c-3.4-1.1-10.1-1.3-12.8-4.5C513.8,343.6,506.4,345,506.4,345z"/>
		<path class="st34" d="M505,335.1V348c0,0,4.8,5.3,11.5-1.1c0,0-2-4-1.1-10.5L505,335.1z"/>
		<path class="st35" d="M528.7,324.2c-3.7,10.7-1.7,12.5-10.7,13.7c-9,1.1-13.2-0.2-13.2-0.2s-3.8,0.9-5.8-1c-1.1-1-1.6-2.8-0.8-6
			c2.3-9.1,6.6-43,6.6-43l-11,0.3l-32.8,0.9c0,0-53,5.6-55.7-27.3c0-0.1,0-0.2,0-0.3c28.6-2.9,86.5-14.6,86.5-14.6s4.8,0.4,11.3,1.6
			c12.2,2.3,30.3,7.2,32.3,16.9C538.5,279.8,532.4,313.5,528.7,324.2z"/>
		<path class="st36" d="M503,248.1c-4.7,1.1-10.4,2.4-13.1,2.9c-4.9,0.9-15.6,7.8-36.7,15.5c-17.2,6.3-40.1-1.9-47.9-5.1
			c0-0.1,0-0.2,0-0.3c28.6-2.9,86.5-14.6,86.5-14.6S496.5,247,503,248.1z"/>
		<path class="st37" d="M443,260.3c0,0-0.5,7.9,24.4,8.6c24.9,0.7,53.9-1.5,54.1,5.1c0.2,6.6-2,18.9-3.3,28.6s-6.4,35.8-6.4,35.8"/>
		<path class="st36" d="M493.7,287.1c0,0,15.7-1,17.6-2.3c1.9-1.3,5.8-1.9,2.4,6.6c-3.4,8.5-13.4,39.2-13.4,40.8
			c0,0.8-0.6,2.7-1.3,4.5c-1.1-1-1.6-2.8-0.8-6c2.3-9.1,6.6-43,6.6-43"/>
		<path class="st38" d="M405.3,261.1c0,0,60.2,2.7,86.5-14.6l-1.7-2.4l-86.4,8.6L405.3,261.1z"/>
		<path class="st35" d="M479.1,169.4c0,0-13-24.5-34.9-6.8s1.2,18.5,1.2,18.5s-50.2,41.7-41.1,75.3c0,0,66.4,2.3,85.7-12.3
			c0,0-3.7-57,3.7-65.4L479.1,169.4z"/>
		<path class="st36" d="M450.7,187.6c0,0-14.8,31.8-3.4,52.5s42.6,1.7,42.6,1.7l-0.2-4.8c0,0-33.3,10.6-36.7-3.1
			C446.7,220.6,450.7,187.6,450.7,187.6z"/>
		<path class="st36" d="M476.3,183.5c0,0,8.3,13.6,4.2,32.9l7.3,0.6c0,0-1.5-5.9-2.6-6C484,210.8,487.3,189.6,476.3,183.5z"/>
		<path class="st39" d="M448.5,179.3c0,0,7.6-4.5,12.2-4.6s15-3.5,15.6-4.6c0.6-1.1-5,5.7-15.1,6.8c0,0-11.6,9.7-20.2,8.3
			C441,185.1,445.2,181.1,448.5,179.3z"/>
		<path class="st34" d="M498.2,230.2c0,0,5.3-0.6,7.8,0c2.5,0.6,8.1,3.9,14.3-0.3c6.2-4.2,10.4-4.6,10.3-1.9
			c-0.1,2.7-0.6,5.4-0.6,5.4s5-1.2,4.1-8.1c-1-6.9-8.1-5-10.8-4.5c-2.6,0.5-23.9,0.8-23.9,0.8L498.2,230.2z"/>
		<path class="st35" d="M500.4,221.6h-3.3c0,0,1.1-4.4-1.1-4.6c-2.2-0.3-8.3,0-8.3,0l-1,20.2c0,0,6.8,0.7,8.8-3.9l4.9-1.9V221.6z"/>
		<path class="st35" d="M449.9,368.2l-76-1.3v-2.7c0-1.3,1.1-2.3,2.3-2.3H447c1.6,0,2.9,1.3,2.9,2.9V368.2z"/>
		<path class="st40" d="M502.4,167.5c0,0-8.9,7.4-8.6,11.2c0,0-0.7,0-3.1-1.9c-2.6-2.2-7.6-3.4-13-7.2c0,0,7.8-5.7,8.5-11.6
			c0-0.3,0.1-0.5,0.2-0.7C488.3,153.4,502.4,167.5,502.4,167.5z"/>
		<path class="st41" d="M502.4,167.5c0,0-8.9,7.4-8.6,11.2c0,0,0,0-3.1-1.9c0,0-2.7-14.6-4.3-19.5
			C488.3,153.4,502.4,167.5,502.4,167.5z"/>
		<path class="st34" d="M516.6,137.6c0,0,1.6,9.3,0.4,13.6c-1.1,4.3,1.7,6,1.7,6s-1.3,1.4-3.9,0.5c0,0-1.4,1.7-0.7,2.8
			c0.7,1.1-2.4,0.9-4.1,0.1c-1.7-0.8-2.1,0.5-1.3,1.3s4,1.8,3.5,2.6c-0.6,0.8-1.6,0.1-1.5,0.8c0.1,0.7,1.3,3.9-1.5,3.9
			c-2.8,0-17.4-5.3-18.7-6.2s-4.1-1.8-4.3-5.1c-0.2-3.3,0.2-22,10.6-23.4C507,133,516.6,137.6,516.6,137.6z"/>
		<path class="st42" d="M509.6,147.1c0,0,4-1.8,4.9,1.1"/>
		
			<ellipse transform="matrix(0.3242 -0.946 0.946 0.3242 204.3376 586.4954)" class="st22" cx="512.7" cy="150.2" rx="1.3" ry="0.8"/>
		<path class="st22" d="M482.1,124.2c0,0-1.3,4.5,0.9,6.1c0,0-7.1,3.8-4,10c3.1,6.1,4.9,12.1,1.8,14.4c-3,2.3,5.9,6.6,9,5.7
			c3.1-0.9,3.6-7,2.9-7.8c-0.7-0.8-3.7-5.6,1.5-8.6c5.2-2.9,7.6,3.7,7.1,6.3c-0.5,2.6,3.7,1.2,3.7,1.2s-0.2-9.3,3.4-10.6
			c3.7-1.3,15.6-1.1,13.9-10.2c0,0-6.7,3.1-7.3-0.8s-5-4.2-5-4.2s-2-8.1-9.5-2.8c0,0-4.6-5.8-8.6-2.9
			C488,122.8,484.4,127.5,482.1,124.2z"/>
	</g>
</g>
</svg>
