<?xml version="1.0" encoding="utf-8"?>
<!-- Generator: Adobe Illustrator 24.3.0, SVG Export Plug-In . SVG Version: 6.00 Build 0)  -->
<svg version="1.1" id="_x37_4ad5bb7-fdcd-4b2d-be88-4cebbebfa027"
	 xmlns="http://www.w3.org/2000/svg" xmlns:xlink="http://www.w3.org/1999/xlink" x="0px" y="0px" viewBox="0 0 1057.7 785"
	 style="enable-background:new 0 0 1057.7 785;" xml:space="preserve">
<style type="text/css">
	.st0{fill:url(#SVGID_1_);}
	.st1{fill:#535461;}
	.st2{fill:#6C63FF;}
	.st3{opacity:0.1;enable-background:new    ;}
	.st4{fill:#DB8B8B;}
	.st5{opacity:5.000000e-02;enable-background:new    ;}
	.st6{fill:#ABB1D1;}
	.st7{fill:none;stroke:#C1272D;stroke-miterlimit:10;}
	.st8{fill:#FFFFFF;}
	.st9{fill:#472727;}
</style>
<linearGradient id="SVGID_1_" gradientUnits="userSpaceOnUse" x1="534.385" y1="-16.59" x2="534.385" y2="666.0823" gradientTransform="matrix(1 0 0 -1 -71.15 726.49)">
	<stop  offset="0" style="stop-color:#808080;stop-opacity:0.25"/>
	<stop  offset="0.54" style="stop-color:#808080;stop-opacity:0.12"/>
	<stop  offset="1" style="stop-color:#808080;stop-opacity:0.1"/>
</linearGradient>
<path class="st0" d="M682.1,503.8c-10.4,0-20.7,1.3-30.7,3.9L614.5,394l-0.5-1.5l3.1-0.9c7.4-16.3-12.3-18.7-12.3-18.7l-1.7,0.6
	c-10.4-3-28.5-4.6-47.2-5.3v-22.7c0-12.5,2.3-24.8,6.7-36.5c0.5-1.4,1-2.8,1.4-4c0.1-0.3,0.2-0.5,0.2-0.8l0.1-0.5
	c0.1-0.3,0.2-0.7,0.3-1s0.1-0.5,0.2-0.7s0.1-0.5,0.2-0.7l0.1-0.3c0.1-0.3,0.2-0.7,0.2-1c0-0.1,0-0.3,0.1-0.4s0.1-0.6,0.2-0.8
	s0.1-0.4,0.1-0.6s0.1-0.4,0.1-0.6s0-0.3,0-0.4s0.1-0.5,0.1-0.7v-0.2c0-0.3,0.1-0.6,0.1-0.9s0-0.2,0-0.4s0-0.4,0-0.6s0-0.2,0-0.3
	s0-0.4,0-0.6s0-0.4,0-0.6s0-0.2,0-0.2s0-0.3,0-0.5s0-0.2,0-0.3s0-0.2,0-0.4s0-0.2,0-0.4s0-0.2,0-0.4s0-0.2,0-0.3
	c-0.4-3.9-0.4-7.8-0.2-11.6l1.4-17.5c4.1-1.3,8-3.3,11.3-6c0,0,0.9-26.1,3.6-46.8c3.5-26.1-6.6-52.3-26.8-69.2
	c-1.8-1.5-3.7-2.9-5.6-4.2c0.4-1.4,0.7-2.9,0.8-4.3c0.9-1.6,2-3.2,3.2-4.6c1.7-1.7,4-2.6,5.9-4c4.2-3.1,6-8.2,7.2-13.1
	c2.5-10,3.2-20.9-1-30.4s-14.3-17.3-25.3-16.8c-3.4,0.2-6.7,1-10,1.4c-8.8,0.9-17.5-2-26.3-2.5c-2.6-0.3-5.1,0-7.5,1
	c-1.8,1-3.3,2.3-4.5,4c-4,5.2-6.8,11.3-8.1,17.8c-1.1,4.9-1.1,9.3-7.1,10c-6.8,0.9-28.6-3.7-24,10.6c2.2,6.8,12.7,7,18.1,12
	c2.8,2.6,4.1,6.4,7.2,8.8l0.1,0.1c-14,0.2-37.1,5.8-50.7,36.7c-20.5,46.8-32.9,62-49.3,74.2c-15.6,11.6-22.9,49-23.6,52.6
	c-4.3,10.9-6.7,31,7.1,64.3c11.7,28.2,21.9,47.5,29.1,61.9l-1.4-0.1c-3-0.2-6-0.6-8.9-1.2c-11.6-2.2-40.8-6.8-48.7,1
	c-9.9,9.8-6.6,26.9,19.7,29.3c6,0.5,12.1,0.6,18.1,0.4v42.8l-0.6,0.3l0,0c-5.1,3.1-10.1,5.8-13.5,7.6l-1.2,0.7c-1-1.6-1.8-3.3-2.4-5
	l-27.2,17.9l13.5,11.2l-13.7,14.2c-0.4-0.4-0.9-0.8-1.3-1.2c-22-18.8-50-29.1-79-29.1c-66.8,0-120.9,53.5-120.9,119.6
	s54.1,119.6,120.9,119.6c59.8,0,109.4-43,119.1-99.4c23,1.7,44.4,2.2,58.4,0.2v13.8h61.6v-16.7l1.5-0.1c27.7-2,13.3-14.2,13.3-14.2
	c-6.4,0-13.4-3.5-18.3-6.6c-1.7-1.1-3.5-2.1-5.3-3c1.7-5.9,1.2-12.3-1.4-17.8l140.6-145l21.5,59.4l-1.4,0.6
	c-42.8,18.4-72.7,60.6-72.7,109.7c0,66.1,54.1,119.6,120.8,119.6S803,689.5,803,623.5S748.8,503.8,682.1,503.8z M688.6,713.1
	l-5-77.2c0.9-0.1,1.8-0.4,2.7-0.7l41.3,65.9C715.6,708,702.3,712.1,688.6,713.1L688.6,713.1z M608,676.2l63.2-45.4l0.1,0.2
	l-25.9,74.9C630.5,699.5,617.6,689.3,608,676.2L608,676.2z M724.6,543.3l-34.7,68.6c-1.6-1.5-3.6-2.6-5.8-3.1l-0.8-2.6l2.4-73.4
	C699.2,533.4,712.5,536.9,724.6,543.3L724.6,543.3z M681.4,600.5l-21.1-65.2c7-1.7,14.2-2.5,21.4-2.5h1.9L681.4,600.5z M643.8,540.9
	c0.5-0.2,1-0.4,1.4-0.6l26.1,72.2c-1,1-1.9,2.3-2.5,3.6L602,579c2.5-4.4,5.4-8.6,8.6-12.5l7.5-8.1
	C625.6,551.1,634.3,545.2,643.8,540.9z M601.1,580.8l67.1,37.3c-0.3,1.1-0.5,2.2-0.5,3.4c0,0.2,0,0.3,0,0.5l-77.3-1.4
	C590.9,606.7,594.5,593,601.1,580.8L601.1,580.8z M694.8,621.6l74-25.5c8,25.3,4.3,52.9-10,75.3l-65.9-41.5c1.3-2,2-4.4,2-6.8
	C694.9,622.6,694.9,622.1,694.8,621.6L694.8,621.6z M768.2,594.2l-73.8,25.5c-0.7-2.1-1.7-4.2-3-6.1l35-69.3
	C746.1,555.2,760.9,572.9,768.2,594.2L768.2,594.2z M594.5,399.9l5.2,14.3l-89.5,27.6l-0.9-18.5l51-15c0.1,1.1,0,2.3-0.2,3.4
	c1.3-1.4,2.4-2.8,3.5-4.4l30.4-8.9L594.5,399.9z M250.8,712.7l-5-77c1,0,2-0.1,3-0.4l41,65.5C277.8,707.6,264.5,711.7,250.8,712.7z
	 M170.2,675.8l63.3-45.3l0.1,0.2l-25.9,74.8C192.7,699.1,179.8,688.8,170.2,675.8L170.2,675.8z M152.7,620.2
	c0.4-13.9,4-27.5,10.6-39.8l68.3,37.9c-0.4,1-0.6,2.1-0.7,3.2L152.7,620.2z M286.8,542.9l-31.6,62.6l-4.8,5
	c-1.5-0.6-3.1-0.9-4.7-0.9h-0.2l2.5-77.2C261.4,533,274.7,536.5,286.8,542.9L286.8,542.9z M317,568.6c5.8,7.6,10.3,16.1,13.4,25.2
	l-66.5,22.9L317,568.6z M260.1,620.2l71-24.5c0.7,2.2,1.3,4.4,1.8,6.7c0.1,0.5,0.2,1,0.3,1.5c-31.9,6.6-61.7,14-74.1,17.1
	L260.1,620.2z M243.3,609.6c-2,0.1-3.9,0.6-5.7,1.5l-26.9-72.7c10.6-4.1,21.8-6.2,33.2-6.2c0.6,0,1.3,0,1.9,0L243.3,609.6z
	 M235.9,612.3c-1.4,1.1-2.6,2.5-3.5,4l-68.1-37.8c2.5-4.4,5.4-8.6,8.6-12.5l7.5-8.1c8.3-8,17.9-14.3,28.5-18.7L235.9,612.3z
	 M333.4,640.5c-2.2,10.8-6.4,21.2-12.4,30.5l-64.7-40.8C269.5,632.3,300.6,637,333.4,640.5z M362.2,596.7c-4-17.6-12-34-23.3-48
	l3.2-2.9l27.6,26.9V597c-2.4,0.4-4.7,0.8-7.1,1.3C362.5,597.7,362.4,597.2,362.2,596.7L362.2,596.7z M369.7,545.6l-0.6-0.6
	L369.7,545.6L369.7,545.6z M391.1,510.4L391.1,510.4l1.6-1l0.7-0.5l0.7-0.5l0.8-0.5l0.8-0.5l1-0.6l0.8-0.5l1.2-0.7l0.7-0.4l1.2-0.8
	c0.5,4.5,1.6,9,3.4,13.2l0.4,35.8c-5.8-6.5-10.3-14.1-13.2-22.3L391.1,510.4z M505.7,353.4c2.4,2.2,4,3.5,4,3.5s5.1,4.6,11,10.6
	c-5.2,0-10,0-14.3,0.1L505.7,353.4z M507.5,389c8.3,0.3,19.2,0.6,30.8,0.7c0.1,0.2,0.2,0.5,0.2,0.7c2.4,0.7,4.7,1.6,6.9,2.7
	l-37.1,12.6L507.5,389z M516.9,323.3c0,0-7.6-20-16.9-35.1c4.9-14.4,14.1-29.6,31.1-36.3l-0.1,1.4l-0.1,0.7
	c-0.5,6.3-1.2,14-1.7,21.9v0.5c-0.1,0.9-0.1,1.9-0.2,2.8v0.5l-0.1,1.2l-0.1,1.1l-0.1,1c0,0.7-0.1,1.3-0.1,2v0.6c0,0.6,0,1.1-0.1,1.7
	v0.7c0,0.7-0.1,1.4-0.1,2.1v0.1c0,0.8-0.1,1.5-0.1,2.3v0.3c0,0.7,0,1.4-0.1,2.1v0.2c-0.1,1.5-0.1,3-0.1,4.5v0.2
	c0,1.5-0.1,2.9-0.1,4.2v0.1c0,1.4,0,2.7,0,3.9l0,0c0,0.6,0,1.2,0,1.7v0.1c0,1.1,0.1,2.2,0.1,3.1v0.2c0.1,0.9,0.1,1.8,0.2,2.6v0.2
	c0,0.3,0.1,0.6,0.1,0.9v0.2c0.1,0.3,0.1,0.6,0.2,0.9v0.1c0,0.2,0.1,0.4,0.2,0.6l0,0.2c0.1,0.2,0.1,0.4,0.2,0.6
	c1.7,3.4,2.5,13.8,2.9,24.8C523.4,332.6,516.9,323.3,516.9,323.3L516.9,323.3z M391.1,592v-28.8l13.4,11.1l0,0l0.2,17.7
	c-4.3,0.4-8.9,1-13.6,1.6L391.1,592z M391.1,442.3c3.5-0.4,6.9-1,10.2-1.5c0.5,2.5,0.7,5,0.6,7.5v15.2h0.7c-4,2.5-7.8,5.2-11.5,8.1
	V442.3L391.1,442.3z M304.1,554.8l-44.2,45.7l28.6-56.7c5.1,2.8,9.8,6.1,14.3,9.8C303.3,554,303.7,554.5,304.1,554.8z M152.7,622.6
	c0-0.2,0-0.3,0-0.5l78.2,1.4c0.1,1.8,0.6,3.6,1.5,5.2L169,674.2C158.4,659.1,152.7,641.1,152.7,622.6z M243.9,712.9
	c-11.8,0-23.5-2.2-34.4-6.7l25.6-74c2.4,2.1,5.4,3.3,8.6,3.3l5,77.2C247.1,712.9,245.5,712.9,243.9,712.9L243.9,712.9z M291.6,699.7
	l-40.8-65.1c1.6-0.7,3-1.6,4.2-2.8l64.9,40.9C312.5,683.6,302.8,692.8,291.6,699.7z M456.7,584.6c-2.4-0.7-4.8-1-7.3-1h-0.8h-0.8
	c-4.2,0-8.3,1-12,2.8c-1.7-10.7-2.6-24.4,1.3-35c2.3-6.4,4.1-12.9,5.2-19.6l8.3-47.2L606,431.9l1.9,5.3L456.7,584.6z M590.5,623
	c0-0.2,0-0.3,0-0.5L668,624c0.6,1.8,1.3,3.5,2.1,5.2l-63.3,45.4C596.1,659.5,590.4,641.5,590.5,623z M681.7,713.3
	c-11.8,0-23.5-2.2-34.4-6.7l25.6-74c2.4,2.1,5.4,3.3,8.6,3.3l5,77.2C684.9,713.3,683.3,713.4,681.7,713.3z M729.3,700.1l-41.2-65.7
	c1.3-0.7,2.5-1.7,3.5-2.9l66,41.6C750.3,684,740.6,693.2,729.3,700.1L729.3,700.1z"/>
<path class="st1" d="M681.4,717.4l-6.3-97.9l-0.1-0.2l-6.3,2.2l-29.1,84.8l-46.2-32.8l73.7-53.4l0.1-0.2l0.4-0.2l4.8-3.5L595.1,573
	l-18.9,20.8l3,19.5l88.8,1.6v2l-90.5-1.6l-3.4-22.1l25.9-28.5l38.7-45.2l0.7,1.9l8.2-9l30.5,5.5v-1.2l2,0.1v1.5l45.4,8.1L683.1,611
	l-6.2,4.5v0.5v0.6l97.8-34.1l-11.6,91.2l-83-52.9l-2.9-1.6l48.9,78.9L681.4,717.4z M677.4,623.1l5.8,91.4l40-17.4L677.4,623.1z
	 M596.8,673.5l41.8,29.6l27.3-79.7L596.8,673.5z M679.2,617.8l2.1,1.2l80.3,51.2l10.8-84.9L679.2,617.8z M672.1,610.6l2.5,4l0.4-0.3
	l3-94.5l-29.7-5.3l-8.2,9L672.1,610.6z M596.7,571.6l74.8,42l-1.3-2.1l-31.6-86.3l-37.2,40.9L596.7,571.6z M680,520.2l-3,92.7
	l4.5-3.3l40.9-81.8L680,520.2z"/>
<path class="st1" d="M255.2,717L249,619l-0.1-0.2l-6.3,2.2l-29.1,84.9l-46.2-32.8l73.7-53.4l0.1-0.2l0.4-0.2l4.8-3.5l-77.2-43.3
	l-18.9,20.8l3,19.5l88.8,1.6v2l-90.5-1.6l-3.4-22.1l25.9-28.5l38.8-45.2l0.7,1.9l8.2-9l30.5,5.5v-1.2l2,0.1v1.5l45.4,8.1l-42.3,84.6
	l-6.2,4.5v0.5v0.6l97.8-34.1l-11.6,91.2l-83-52.9l-2.9-1.6l48.9,78.9L255.2,717z M251.2,622.7l5.9,91.4l40-17.4L251.2,622.7z
	 M170.6,673.1l41.8,29.6l27.3-79.7L170.6,673.1z M253,617.4l2.1,1.2l80.4,51.2l10.8-84.9L253,617.4z M245.9,610.2l2.5,4l0.4-0.3
	l3-94.5l-29.7-5.3l-8.2,9L245.9,610.2z M170.5,571.2l74.8,42L244,611l-31.6-86.3l-37.2,40.9L170.5,571.2z M253.9,519.8l-3,92.7
	l4.5-3.3l40.9-81.8L253.9,519.8z"/>
<rect x="349.5" y="510" transform="matrix(0.7024 -0.7118 0.7118 0.7024 -277.5268 416.2115)" class="st2" width="19" height="60"/>
<rect x="349.5" y="510" transform="matrix(0.7024 -0.7118 0.7118 0.7024 -277.5268 416.2115)" class="st3" width="19" height="60"/>
<path class="st4" d="M354.5,492c0,0,24.8-13.1,34.4-21.5c5.8-5,12-9.6,18.5-13.5l31.1-18.9l65-5l3,11c0,0,5,16-45,30s-75,36-75,36
	S354.5,521,354.5,492z"/>
<path class="st3" d="M389.1,507.9c-1.8,1.3-2.6,2.1-2.6,2.1s-32,11-32-18c0,0,1.5-0.8,4-2.2c5,8.2,14,13.2,23.6,13.2h3.4
	L389.1,507.9z"/>
<path class="st5" d="M505.5,449.5c-2.8,5.9-12.4,15.6-44.1,24.4c-40.6,11.4-64.7,28-72.4,33.9c-1.8,1.3-2.6,2.1-2.6,2.1
	s-32,11-32-18c0,0,1.5-0.8,4-2.2c7.4-4.1,23.2-13,30.3-19.3c5.8-5,12-9.6,18.5-13.5l31.1-18.9l11.6-0.9l53.4-4.1l3,11
	C506.4,444,507.1,446.1,505.5,449.5z"/>
<path class="st6" d="M355,485.5L328.5,503l77.6,65c0,0,11.4-7,5.4-15c0,0-20-17-21-41l-6-8h-3.4C369.3,504,358.9,496.6,355,485.5z"
	/>
<path class="st3" d="M505.5,449.5c-16-7.7-55.1-8.6-55.1-8.6l-0.4-3.9l53.4-4.1l3,11C506.5,444,507.1,446.1,505.5,449.5z"/>
<path class="st6" d="M450.5,439c0,0,47,1,59,11l-6-121h-65L450.5,439z"/>
<path class="st5" d="M450.5,438.5c0,0,47,1,59,11l-6-121h-65L450.5,438.5z"/>
<path class="st1" d="M676.3,498.6c-10.6,0-21.2,1.4-31.4,4.2c-5.3,1.5-10.4,3.3-15.5,5.5c-59.6,25.9-87,95.2-61.2,154.8
	c25.9,59.6,95.2,87,154.8,61.2c59.6-25.9,87-95.2,61.2-154.8C765.6,526.5,723.2,498.6,676.3,498.6L676.3,498.6z M675.9,704.7
	c-49.1,0-88.8-39.8-88.8-88.9c0-34.8,20.3-66.3,51.9-80.8c4.7-2.1,9.6-3.9,14.6-5.2c47.5-12.3,96,16.2,108.3,63.7
	c12.3,47.5-16.2,96-63.7,108.3C691,703.7,683.5,704.7,675.9,704.7L675.9,704.7z"/>
<path class="st1" d="M488.2,364.9c0,0,117.6-4,120,11.2S490.6,385,490.6,385S481,375.3,488.2,364.9z"/>
<path class="st5" d="M488.2,364.9c0,0,117.6-4,120,11.2S490.6,385,490.6,385S481,375.3,488.2,364.9z"/>
<rect x="409.8" y="689.1" class="st7" width="0" height="0"/>
<rect x="372.2" y="425.8" class="st2" width="20.8" height="180.9"/>
<path class="st3" d="M393,425.8v13.9c-6.9,0.9-14,1.5-20.8,1.7v-15.6H393z"/>
<path class="st1" d="M391.4,410.8c-2.9-0.2-5.8-0.6-8.7-1.2c-11.3-2.2-39.7-6.7-47.4,1c-9.6,9.6-6.4,26.4,19.2,28.8
	s69.6-4,78.4-13.6C433,425.8,417.1,412.8,391.4,410.8z"/>
<polygon class="st2" points="387.4,475.4 605.9,407.4 613.1,424.2 389,501 "/>
<polygon class="st2" points="452.2,582.7 609.9,427.4 618.7,440.2 468.2,597 "/>
<path class="st3" d="M653.6,529.8c-5,1.3-9.9,3-14.6,5.2l-9.6-26.7c5-2.2,10.2-4,15.5-5.5L653.6,529.8z"/>
<polygon class="st2" points="680.3,608.3 669.1,614.7 591,396.3 587.5,386.6 605.9,376.1 610.5,390.5 "/>
<polygon class="st3" points="610.5,390.5 591,396.3 587.5,386.6 605.9,376.1 "/>
<path class="st1" d="M491.4,407.4l109.6-37.6c0,0,19.2,2.4,12,18.4L502.6,421C502.6,421,485.9,422.6,491.4,407.4z"/>
<path class="st1" d="M364.9,590c-4-17.8-12.1-34.5-23.7-48.6c-4.3-5.2-9-10.1-14.2-14.6c-49.2-42.5-123.5-37-165.9,12.2
	c-42.5,49.2-37,123.5,12.2,165.9s123.5,37,165.9-12.2c14.3-16.6,23.7-36.9,27.2-58.6c0.9-6.1,1.4-12.2,1.4-18.3
	C367.8,607.1,366.8,598.5,364.9,590z M249.7,704.3c-49-0.1-88.7-39.8-88.7-88.8c0.1-49,39.8-88.7,88.8-88.7
	c49,0.1,88.7,39.8,88.7,88.8c0,5.3-0.5,10.6-1.4,15.8C329.4,673.7,292.6,704.3,249.7,704.3z"/>
<path class="st3" d="M367.8,615.9c0,6.1-0.5,12.3-1.4,18.3c-9.6-0.7-19.5-1.7-29.2-2.7c2.2-11.9,1.9-24.1-0.8-35.9
	c9.5-2,19.1-3.9,28.6-5.6C366.8,598.5,367.8,607.2,367.8,615.9z"/>
<path class="st3" d="M393,585.4v21.3h-20.8v-18C379.4,587.4,386.4,586.3,393,585.4z"/>
<path class="st2" d="M258.5,615.5c0,0,168.1-44,181.7-27.2s28,39.2-14.4,47.2s-170.5-13.6-170.5-13.6L258.5,615.5z"/>
<path class="st3" d="M341.2,541.4l-21.4,19.5c-3.8-4.9-8.1-9.3-12.8-13.3l19.9-20.8C332.2,531.2,336.9,536.1,341.2,541.4z"/>
<polygon class="st2" points="252.9,606.7 378.6,475.4 382.6,505.8 259.3,618.7 "/>
<circle class="st3" cx="251.3" cy="615.5" r="12.8"/>
<ellipse transform="matrix(0.1602 -0.9871 0.9871 0.1602 -397.7852 763.3796)" class="st1" cx="249.7" cy="615.5" rx="12.8" ry="12.8"/>
<circle class="st3" cx="675.1" cy="614.3" r="12.8"/>
<circle class="st1" cx="675.9" cy="615.9" r="12.8"/>
<circle class="st3" cx="448.2" cy="602.7" r="25.6"/>
<circle class="st1" cx="449.8" cy="602.7" r="25.6"/>
<path class="st2" d="M443,600.7L443,600.7c3-2.3,7.3-1.6,9.5,1.4l20.3,27.2c2.2,3,1.6,7.3-1.4,9.5l0,0c-3,2.2-7.3,1.6-9.5-1.4
	l-20.3-27.2C439.4,607.3,440,603,443,600.7z"/>
<path class="st4" d="M565.5,247l-2.4,30.1c-0.3,3.8-0.2,7.6,0.2,11.5c0.3,3.4,0,9.3-3.3,18.3c-4.2,11.5-6.4,23.6-6.5,35.9V377l-23-4
	c0,0,1-48-3-56s3-79,3-79L565.5,247z"/>
<path class="st5" d="M564.3,261.9l-1.2,15.2c-0.3,3.8-0.2,7.6,0.2,11.4c0.3,3.4,0,9.3-3.3,18.3c-4.2,11.5-6.4,23.6-6.5,35.9V377
	l-23-4c0,0,1-48-3-56c-2.8-5.7-0.2-42.9,1.7-64.2c0.8-8.8,1.3-14.8,1.3-14.8l35,9L564.3,261.9z"/>
<path class="st4" d="M451.5,477l-8.7,49.2c-1.1,6.6-2.8,13-5,19.3c-5.1,13.9-1.8,33.3,0.6,43.9c1.1,4.7,2,7.6,2,7.6l-26,14l-8-6v-4
	l-1-89c-6-14-4-35,0-43c1.1-2.6,1.9-5.4,2.4-8.2c2-10.7,2.6-25.8,2.6-25.8s16-27,35-9c7,6.6,9.7,15.3,10.2,23.6
	C456.7,463.8,451.5,477,451.5,477z"/>
<path class="st3" d="M455.7,449.6c-13.9,8.2-38,10.6-47.8,11.2c2-10.7,2.6-25.8,2.6-25.8s16-27,35-9
	C452.5,432.6,455.1,441.3,455.7,449.6z"/>
<path class="st6" d="M489.5,425c-10.6,5.7-20.7,12.4-30,20c-16,13-56,14-56,14v-15c1-18-16-38-39-94c-14.7-35.8-10.6-56-5.8-66
	c2.8-5.6,5.8-8,5.8-8l125,24l4.5,13.4l9.5,28.6c0,0-35,2-41,5s-2,30-2,30C454.5,405,489.5,425,489.5,425z"/>
<path class="st3" d="M565.5,247l-1.2,14.9c-17.4,5-29.8-10.9-29.8-10.9c-1.8,0.5-3.6,1.1-5.3,1.8c0.8-8.8,1.3-14.8,1.3-14.8
	L565.5,247z"/>
<path class="st3" d="M493.9,313.4c-0.5,4.7-0.5,7.6-0.5,7.6s-23,19-62-10s-74-21-74-21s0.4-2.3,1.2-6c2.8-5.6,5.8-8,5.8-8l125,24
	L493.9,313.4z"/>
<path class="st8" d="M579,207.9c-2.6,20.4-3.5,46-3.5,46c-23,18-41-5-41-5c-21.7,5.8-31.9,24.8-36.7,41.4c-2.6,9-4,18.2-4.3,27.6
	c0,0-6.1,5-17.3,6c-10.6,0.9-25.8-1.9-44.7-16c-39-29-74-21-74-21s7-40,23-52s28-27,48-73c20-46,61-35,61-35s2-9,39,0
	c9,2.4,17.4,6.8,24.4,12.9C572.6,156.5,582.2,182.3,579,207.9z"/>
<path class="st4" d="M541.8,149.5c0,1.3-0.2,2.8-0.3,4.5c-2,18-4,16-26,20c-13.7,2.5-20.8-8.9-24.2-17.9c-1.2-3.3-2.2-6.6-2.8-10.1
	l48-8C536.5,138,542.3,136.3,541.8,149.5z"/>
<path class="st5" d="M497.7,290.4c-2.6,9-4,18.2-4.3,27.6c0,0-6.1,5-17.3,6c-0.3-0.6-0.6-1.3-0.7-2c-2-9-17-25-17-25
	c-10-9-12-25-12-25L430,223.5l-5.5-4.5c0,0,23-18,43-3s14,47,14,47l4,11C489.6,277.5,493.9,283.7,497.7,290.4z"/>
<path class="st4" d="M427.5,218l22,53c0,0,2,16,12,25c0,0,15,16,17,25s30,33,30,33s26,24,28,33c0,0,24,7,21,21c0,0,18-18,0-35
	s-42-52-42-52s-14-37-27-48l-4-11c0,0,6-32-14-47S427.5,218,427.5,218z"/>
<path class="st3" d="M440.5,597l-26,14l-8-6v-4c9-0.6,17.7-3.3,25.5-7.7c2.4-1.4,4.7-2.7,6.5-3.9C439.6,594,440.5,597,440.5,597z"/>
<path class="st3" d="M470.5,176l14,55c0,0-43,7-52,0s-26-9-26-9s18-52,28-58S470.5,176,470.5,176z"/>
<path class="st8" d="M470.5,174l14,55c0,0-43,7-52,0s-26-9-26-9s18-52,28-58S470.5,174,470.5,174z"/>
<path class="st3" d="M541.8,148.5c-11.3,15.7-33.2,19.2-48.9,7.8c-0.6-0.4-1.1-0.8-1.7-1.3c-1.2-3.3-2.2-6.6-2.8-10.1l48-8
	C536.5,137,542.3,135.3,541.8,148.5z"/>
<path class="st4" d="M548.5,127c0,19.3-15.7,35-35,35c-19.3,0-35-15.7-35-35c0-0.6,0-1.2,0-1.7c0.5-19.3,16.5-34.6,35.9-34.1
	C533.7,91.6,549,107.7,548.5,127z"/>
<path class="st3" d="M548.5,127c0,3.2-0.4,6.4-1.3,9.5c-2.7,0.6-5.5,0.3-8.1-0.7c-3.7-1.5-7-4-10.5-5.8c-10.1-5.1-22.1-4.1-33.3-2.4
	c-5.6,0.8-11.9,1.6-16.2-1.9c-0.2-0.1-0.3-0.2-0.4-0.4c0.5-19.3,16.5-34.6,35.9-34.1C533.7,91.6,549,107.7,548.5,127L548.5,127z"/>
<path class="st9" d="M453.2,105.3c2.1,6.7,12.4,6.9,17.6,11.8c2.7,2.6,4,6.3,7,8.6c4.2,3.2,10.2,2.5,15.5,1.7
	c10.7-1.5,22.2-2.4,31.8,2.2c3.4,1.6,6.5,3.9,10.1,5.2s8,1.5,10.9-0.9c2.3-1.9,3.2-5,5.3-7.1c1.6-1.6,3.9-2.6,5.8-4
	c4.1-3.1,5.8-8.1,7-12.9c2.4-9.9,3.1-20.5-1-29.9s-13.9-17-24.7-16.5c-3.3,0.2-6.5,1-9.8,1.4c-8.5,0.9-17-2-25.6-2.5
	c-2.5-0.3-5,0-7.3,1c-1.7,1-3.3,2.3-4.4,4c-3.9,5.1-6.6,11.1-7.9,17.5c-1,4.8-1,9.1-6.9,9.9C469.9,95.7,448.6,91.2,453.2,105.3z"/>
<path class="st5" d="M385,234.5c0,0,26,7,34,25s29.6,21.3,29.6,21.3"/>
<rect x="423" y="630.5" class="st2" width="60" height="19"/>
<rect x="423" y="630.5" class="st3" width="60" height="19"/>
<path class="st6" d="M432,595.2c5.4-3,10.1-6,10.5-7.2c0,0,13.5,14.3,25.6,18.7c4.1,1.5,7.9,3.4,11.6,5.8c4.8,3,11.6,6.5,17.8,6.5
	c0,0,14,12-13,14s-90-5-90-5l4-25l0,0C410.2,603.7,421.8,601,432,595.2z"/>
</svg>
